<svg width="20" height="20" viewBox="0 0 20 20" fill="none" xmlns="http://www.w3.org/2000/svg">
<path d="M9.99616 1.66602C5.39199 1.66602 1.66699 5.39518 1.66699 9.99935C1.66699 14.6035 5.39199 18.3327 9.99616 18.3327C14.6003 18.3327 18.3337 14.6035 18.3337 9.99935C18.3337 5.39518 14.6003 1.66602 9.99616 1.66602ZM10.0003 16.666C6.31699 16.666 3.33366 13.6827 3.33366 9.99935C3.33366 6.31602 6.31699 3.33268 10.0003 3.33268C13.6837 3.33268 16.667 6.31602 16.667 9.99935C16.667 13.6827 13.6837 16.666 10.0003 16.666Z" fill="#5F6368"/>
<path d="M10.417 5.83398H9.16699V10.834L13.5378 13.459L14.167 12.434L10.417 10.209V5.83398Z" fill="#5F6368"/>
</svg>
