<svg width="120" height="37" viewBox="0 0 120 37" fill="none" xmlns="http://www.w3.org/2000/svg">
<path d="M46.55 22.834L47.253 24.126C47.0377 24.3287 46.5817 24.563 45.885 24.829C45.1883 25.095 44.441 25.228 43.643 25.228C42.2243 25.228 41.078 24.7973 40.204 23.936C39.3427 23.0747 38.912 21.7827 38.912 20.06C38.912 19.11 39.064 18.274 39.368 17.552C39.672 16.8173 40.0647 16.2473 40.546 15.842C41.534 15.0313 42.5663 14.626 43.643 14.626C44.7323 14.626 45.5937 14.9047 46.227 15.462C46.873 16.0067 47.196 16.678 47.196 17.476C47.196 18.5273 46.6957 19.3887 45.695 20.06C44.6943 20.7187 43.092 21.048 40.888 21.048C40.888 21.6307 41.1287 22.207 41.61 22.777C42.104 23.347 42.826 23.632 43.776 23.632C44.7387 23.632 45.6633 23.366 46.55 22.834ZM45.353 17.647C45.353 17.267 45.2073 16.9377 44.916 16.659C44.6373 16.3677 44.2383 16.222 43.719 16.222C42.883 16.222 42.1927 16.5387 41.648 17.172C41.116 17.7927 40.8437 18.6097 40.831 19.623C43.8457 19.623 45.353 18.9643 45.353 17.647ZM56.7962 25H49.0442V23.461L54.2502 16.45H49.0252L49.2912 14.854H56.5492V16.45L51.3812 23.404H56.5302L56.7962 25ZM61.8665 25V13.03H57.8195V11.32H68.2315L67.9655 13.03H64.0325V25H61.8665ZM70.0582 10.56C70.3749 10.56 70.6409 10.6613 70.8562 10.864C71.0715 11.054 71.1792 11.3453 71.1792 11.738C71.1792 12.5613 70.7485 12.973 69.8872 12.973C69.5832 12.973 69.3299 12.878 69.1272 12.688C68.9245 12.4853 68.8232 12.194 68.8232 11.814C68.8232 10.978 69.2349 10.56 70.0582 10.56ZM68.9752 25V14.987L71.0272 14.721V25H68.9752ZM78.3539 25.228C76.9099 25.228 75.7953 24.734 75.0099 23.746C74.2246 22.758 73.8319 21.4977 73.8319 19.965C73.8319 18.4197 74.2499 17.1467 75.0859 16.146C75.9219 15.1327 77.0809 14.626 78.5629 14.626C79.8043 14.626 80.9443 14.892 81.9829 15.424L81.4129 16.811C80.5516 16.4183 79.7409 16.222 78.9809 16.222C77.9676 16.222 77.2139 16.5577 76.7199 17.229C76.2386 17.9003 75.9979 18.7427 75.9979 19.756C75.9979 22.34 76.9986 23.632 78.9999 23.632C79.7473 23.632 80.5263 23.4167 81.3369 22.986L82.0019 24.316C81.0266 24.924 79.8106 25.228 78.3539 25.228ZM86.4276 25H84.3756V10.674L86.4276 10.408V19.072L90.7786 14.74L93.2486 14.968L88.9356 19.015L91.1396 22.131C91.8363 23.1063 92.5583 23.6067 93.3056 23.632V25.095C93.2043 25.1203 92.9953 25.133 92.6786 25.133C91.3993 25.133 90.3416 24.5187 89.5056 23.29L87.4726 20.25L86.4276 21.219V25ZM102.14 22.834L102.843 24.126C102.628 24.3287 102.172 24.563 101.475 24.829C100.778 25.095 100.031 25.228 99.2328 25.228C97.8142 25.228 96.6678 24.7973 95.7938 23.936C94.9325 23.0747 94.5018 21.7827 94.5018 20.06C94.5018 19.11 94.6538 18.274 94.9578 17.552C95.2618 16.8173 95.6545 16.2473 96.1358 15.842C97.1238 15.0313 98.1562 14.626 99.2328 14.626C100.322 14.626 101.184 14.9047 101.817 15.462C102.463 16.0067 102.786 16.678 102.786 17.476C102.786 18.5273 102.286 19.3887 101.285 20.06C100.284 20.7187 98.6818 21.048 96.4778 21.048C96.4778 21.6307 96.7185 22.207 97.1998 22.777C97.6938 23.347 98.4158 23.632 99.3658 23.632C100.329 23.632 101.253 23.366 102.14 22.834ZM100.943 17.647C100.943 17.267 100.797 16.9377 100.506 16.659C100.227 16.3677 99.8282 16.222 99.3088 16.222C98.4728 16.222 97.7825 16.5387 97.2378 17.172C96.7058 17.7927 96.4335 18.6097 96.4208 19.623C99.4355 19.623 100.943 18.9643 100.943 17.647ZM106.192 12.821L107.807 12.612V15.215H110.752L110.524 16.583H107.807V21.675C107.807 22.359 107.908 22.8593 108.111 23.176C108.326 23.48 108.656 23.632 109.099 23.632C109.542 23.632 110.043 23.5813 110.6 23.48L110.847 24.867C110.062 25.1077 109.302 25.228 108.567 25.228C107.541 25.228 106.813 24.9557 106.382 24.411C105.964 23.8663 105.755 23.0937 105.755 22.093V16.583H104.33V15.405L105.755 15.215L106.192 12.821Z" fill="white"/>
<ellipse cx="20.5" cy="18" rx="14.5" ry="15" fill="white"/>
<path d="M22.8 14L24 15.2L17.2 22L16 20.8L22.8 14ZM12 10H28C29.11 10 30 10.89 30 12V16C29.4696 16 28.9609 16.2107 28.5858 16.5858C28.2107 16.9609 28 17.4696 28 18C28 18.5304 28.2107 19.0391 28.5858 19.4142C28.9609 19.7893 29.4696 20 30 20V24C30 25.11 29.11 26 28 26H12C11.4696 26 10.9609 25.7893 10.5858 25.4142C10.2107 25.0391 10 24.5304 10 24V20C11.11 20 12 19.11 12 18C12 17.4696 11.7893 16.9609 11.4142 16.5858C11.0391 16.2107 10.5304 16 10 16V12C10 11.4696 10.2107 10.9609 10.5858 10.5858C10.9609 10.2107 11.4696 10 12 10ZM12 12V14.54C12.6077 14.8904 13.1124 15.3947 13.4633 16.0021C13.8142 16.6094 13.9989 17.2985 13.9989 18C13.9989 18.7015 13.8142 19.3906 13.4633 19.9979C13.1124 20.6053 12.6077 21.1096 12 21.46V24H28V21.46C27.3923 21.1096 26.8876 20.6053 26.5367 19.9979C26.1858 19.3906 26.0011 18.7015 26.0011 18C26.0011 17.2985 26.1858 16.6094 26.5367 16.0021C26.8876 15.3947 27.3923 14.8904 28 14.54V12H12ZM17.5 14C18.33 14 19 14.67 19 15.5C19 16.33 18.33 17 17.5 17C16.67 17 16 16.33 16 15.5C16 14.67 16.67 14 17.5 14ZM22.5 19C23.33 19 24 19.67 24 20.5C24 21.33 23.33 22 22.5 22C21.67 22 21 21.33 21 20.5C21 19.67 21.67 19 22.5 19Z" fill="#102743"/>
</svg>
