<svg width="40" height="40" viewBox="0 0 40 40" fill="none" xmlns="http://www.w3.org/2000/svg">
<circle cx="20.5" cy="21.5" r="18.5" fill="#102743"/>
<path d="M23.72 16.5L25.1 17.85L17.28 25.5L15.9 24.15L23.72 16.5ZM11.3 12H29.7C30.9765 12 32 13.0012 32 14.25V18.75C31.39 18.75 30.805 18.9871 30.3737 19.409C29.9423 19.831 29.7 20.4033 29.7 21C29.7 21.5967 29.9423 22.169 30.3737 22.591C30.805 23.0129 31.39 23.25 32 23.25V27.75C32 28.9988 30.9765 30 29.7 30H11.3C10.69 30 10.105 29.7629 9.67365 29.341C9.24232 28.919 9 28.3467 9 27.75V23.25C10.2765 23.25 11.3 22.2488 11.3 21C11.3 20.4033 11.0577 19.831 10.6263 19.409C10.195 18.9871 9.61 18.75 9 18.75V14.25C9 13.6533 9.24232 13.081 9.67365 12.659C10.105 12.2371 10.69 12 11.3 12ZM11.3 14.25V17.1075C11.9988 17.5017 12.5792 18.069 12.9827 18.7523C13.3863 19.4356 13.5987 20.2109 13.5987 21C13.5987 21.7891 13.3863 22.5644 12.9827 23.2477C12.5792 23.931 11.9988 24.4983 11.3 24.8925V27.75H29.7V24.8925C29.0012 24.4983 28.4208 23.931 28.0173 23.2477C27.6137 22.5644 27.4013 21.7891 27.4013 21C27.4013 20.2109 27.6137 19.4356 28.0173 18.7523C28.4208 18.069 29.0012 17.5017 29.7 17.1075V14.25H11.3ZM17.625 16.5C18.5795 16.5 19.35 17.2538 19.35 18.1875C19.35 19.1212 18.5795 19.875 17.625 19.875C16.6705 19.875 15.9 19.1212 15.9 18.1875C15.9 17.2538 16.6705 16.5 17.625 16.5ZM23.375 22.125C24.3295 22.125 25.1 22.8788 25.1 23.8125C25.1 24.7462 24.3295 25.5 23.375 25.5C22.4205 25.5 21.65 24.7462 21.65 23.8125C21.65 22.8788 22.4205 22.125 23.375 22.125Z" fill="white"/>
</svg>
